<mxfile host="app.diagrams.net" agent="Mozilla/5.0 (X11; Linux x86_64) AppleWebKit/537.36 (KHTML, like Gecko) Chrome/136.0.0.0 Safari/537.36" version="27.0.6">
  <diagram name="Page-1" id="O6U4t7XTi-PgL4FWXcu7">
    <mxGraphModel grid="1" page="1" gridSize="10" guides="1" tooltips="1" connect="1" arrows="1" fold="1" pageScale="1" pageWidth="827" pageHeight="1169" math="0" shadow="0">
      <root>
        <mxCell id="0" />
        <mxCell id="1" parent="0" />
        <mxCell id="qYo8YAyCSx4QtcrTbeZ4-1" value="&lt;p&gt;&lt;br&gt;&lt;/p&gt;" style="rounded=0;whiteSpace=wrap;html=1;align=left;fillColor=none;" vertex="1" parent="1">
          <mxGeometry x="1040" y="819" width="140" height="440" as="geometry" />
        </mxCell>
        <mxCell id="qYo8YAyCSx4QtcrTbeZ4-3" value="&lt;font style=&quot;font-size: 10px;&quot;&gt;&lt;b&gt;Funcionário&lt;/b&gt;&lt;/font&gt;" style="text;html=1;align=center;verticalAlign=middle;whiteSpace=wrap;rounded=0;" vertex="1" parent="1">
          <mxGeometry x="1080" y="819" width="60" height="20" as="geometry" />
        </mxCell>
        <mxCell id="qYo8YAyCSx4QtcrTbeZ4-5" value="&lt;font style=&quot;font-size: 10px;&quot;&gt;&amp;nbsp;nome&lt;/font&gt;" style="rounded=0;whiteSpace=wrap;html=1;align=left;fillColor=none;" vertex="1" parent="1">
          <mxGeometry x="1050" y="869" width="120" height="20" as="geometry" />
        </mxCell>
        <mxCell id="qYo8YAyCSx4QtcrTbeZ4-6" value="&lt;span style=&quot;font-size: 10px;&quot;&gt;&amp;nbsp;salário&lt;/span&gt;" style="rounded=0;whiteSpace=wrap;html=1;align=left;fillColor=none;" vertex="1" parent="1">
          <mxGeometry x="1050" y="899" width="120" height="20" as="geometry" />
        </mxCell>
        <mxCell id="qYo8YAyCSx4QtcrTbeZ4-7" value="" style="rounded=0;whiteSpace=wrap;html=1;align=left;fillColor=none;" vertex="1" parent="1">
          <mxGeometry x="1070" y="989" width="100" height="50" as="geometry" />
        </mxCell>
        <mxCell id="qYo8YAyCSx4QtcrTbeZ4-8" value="" style="shape=curlyBracket;whiteSpace=wrap;html=1;rounded=1;labelPosition=left;verticalLabelPosition=middle;align=right;verticalAlign=middle;" vertex="1" parent="1">
          <mxGeometry x="1045" y="929" width="20" height="110" as="geometry" />
        </mxCell>
        <mxCell id="qYo8YAyCSx4QtcrTbeZ4-9" value="&lt;span style=&quot;font-size: 10px;&quot;&gt;&amp;nbsp;cobrador&lt;/span&gt;" style="rounded=0;whiteSpace=wrap;html=1;align=left;fillColor=none;" vertex="1" parent="1">
          <mxGeometry x="1070" y="959" width="100" height="20" as="geometry" />
        </mxCell>
        <mxCell id="qYo8YAyCSx4QtcrTbeZ4-10" value="&lt;span style=&quot;font-size: 10px;&quot;&gt;&amp;nbsp;técnico&lt;/span&gt;" style="rounded=0;whiteSpace=wrap;html=1;align=left;fillColor=none;" vertex="1" parent="1">
          <mxGeometry x="1070" y="929" width="100" height="20" as="geometry" />
        </mxCell>
        <mxCell id="qYo8YAyCSx4QtcrTbeZ4-11" value="&lt;font style=&quot;font-size: 10px;&quot;&gt;&lt;b&gt;motorista&lt;/b&gt;&lt;/font&gt;" style="text;html=1;align=center;verticalAlign=middle;whiteSpace=wrap;rounded=0;" vertex="1" parent="1">
          <mxGeometry x="1090" y="989" width="60" height="20" as="geometry" />
        </mxCell>
        <mxCell id="qYo8YAyCSx4QtcrTbeZ4-12" value="&lt;span style=&quot;font-size: 10px;&quot;&gt;cod_habilitação&lt;/span&gt;" style="rounded=0;whiteSpace=wrap;html=1;align=left;fillColor=none;" vertex="1" parent="1">
          <mxGeometry x="1080" y="1009" width="80" height="20" as="geometry" />
        </mxCell>
        <mxCell id="qYo8YAyCSx4QtcrTbeZ4-14" value="&lt;font style=&quot;font-size: 10px;&quot;&gt;&amp;nbsp;cpf&lt;/font&gt;" style="rounded=0;whiteSpace=wrap;html=1;align=left;fillColor=none;" vertex="1" parent="1">
          <mxGeometry x="1050" y="839" width="120" height="20" as="geometry" />
        </mxCell>
        <mxCell id="qYo8YAyCSx4QtcrTbeZ4-18" value="" style="rounded=0;whiteSpace=wrap;html=1;align=left;fillColor=none;" vertex="1" parent="1">
          <mxGeometry x="1050" y="1048" width="120" height="110" as="geometry" />
        </mxCell>
        <mxCell id="qYo8YAyCSx4QtcrTbeZ4-17" value="&lt;font style=&quot;font-size: 9px;&quot;&gt;(0,n)&lt;/font&gt;" style="text;html=1;align=center;verticalAlign=middle;whiteSpace=wrap;rounded=0;" vertex="1" parent="1">
          <mxGeometry x="1140" y="1048" width="30" height="20" as="geometry" />
        </mxCell>
        <mxCell id="qYo8YAyCSx4QtcrTbeZ4-19" value="&lt;font style=&quot;font-size: 10px;&quot;&gt;&lt;b&gt;&amp;nbsp;escalas&lt;/b&gt;&lt;/font&gt;" style="text;html=1;align=left;verticalAlign=middle;whiteSpace=wrap;rounded=0;" vertex="1" parent="1">
          <mxGeometry x="1050" y="1048" width="60" height="20" as="geometry" />
        </mxCell>
        <mxCell id="LFhs_y6k25hVq53i3RBb-1" value="&lt;span style=&quot;font-size: 10px;&quot;&gt;&amp;nbsp;dia_semana&lt;/span&gt;" style="rounded=0;whiteSpace=wrap;html=1;align=left;fillColor=none;" vertex="1" parent="1">
          <mxGeometry x="1060" y="1069" width="100" height="20" as="geometry" />
        </mxCell>
        <mxCell id="LFhs_y6k25hVq53i3RBb-2" value="&lt;span style=&quot;font-size: 10px;&quot;&gt;&amp;nbsp;hora_início&lt;/span&gt;" style="rounded=0;whiteSpace=wrap;html=1;align=left;fillColor=none;" vertex="1" parent="1">
          <mxGeometry x="1060" y="1099" width="100" height="20" as="geometry" />
        </mxCell>
        <mxCell id="LFhs_y6k25hVq53i3RBb-3" value="&lt;span style=&quot;font-size: 10px;&quot;&gt;&amp;nbsp;hora_fim&lt;/span&gt;" style="rounded=0;whiteSpace=wrap;html=1;align=left;fillColor=none;" vertex="1" parent="1">
          <mxGeometry x="1060" y="1129" width="100" height="20" as="geometry" />
        </mxCell>
        <mxCell id="LFhs_y6k25hVq53i3RBb-9" value="" style="rounded=0;whiteSpace=wrap;html=1;align=left;fillColor=none;" vertex="1" parent="1">
          <mxGeometry x="1050" y="1169" width="120" height="80" as="geometry" />
        </mxCell>
        <mxCell id="LFhs_y6k25hVq53i3RBb-11" value="&lt;span style=&quot;font-size: 10px;&quot;&gt;&lt;b&gt;&amp;nbsp;empresa&lt;/b&gt;&lt;/span&gt;" style="text;html=1;align=left;verticalAlign=middle;whiteSpace=wrap;rounded=0;" vertex="1" parent="1">
          <mxGeometry x="1080" y="1169" width="60" height="20" as="geometry" />
        </mxCell>
        <mxCell id="LFhs_y6k25hVq53i3RBb-12" value="&lt;span style=&quot;font-size: 10px;&quot;&gt;&amp;nbsp;cnpj&lt;/span&gt;" style="rounded=0;whiteSpace=wrap;html=1;align=left;fillColor=none;" vertex="1" parent="1">
          <mxGeometry x="1060" y="1190" width="100" height="20" as="geometry" />
        </mxCell>
        <mxCell id="LFhs_y6k25hVq53i3RBb-13" value="&lt;span style=&quot;font-size: 10px;&quot;&gt;&amp;nbsp;nome&lt;/span&gt;" style="rounded=0;whiteSpace=wrap;html=1;align=left;fillColor=none;" vertex="1" parent="1">
          <mxGeometry x="1060" y="1219" width="100" height="20" as="geometry" />
        </mxCell>
        <mxCell id="LFhs_y6k25hVq53i3RBb-14" value="&lt;p&gt;&lt;br&gt;&lt;/p&gt;" style="rounded=0;whiteSpace=wrap;html=1;align=left;fillColor=none;" vertex="1" parent="1">
          <mxGeometry x="240" y="600" width="140" height="170" as="geometry" />
        </mxCell>
        <mxCell id="LFhs_y6k25hVq53i3RBb-15" value="&lt;font style=&quot;font-size: 10px;&quot;&gt;&lt;b&gt;Ponto&lt;/b&gt;&lt;/font&gt;" style="text;html=1;align=center;verticalAlign=middle;whiteSpace=wrap;rounded=0;" vertex="1" parent="1">
          <mxGeometry x="280" y="600" width="60" height="20" as="geometry" />
        </mxCell>
        <mxCell id="LFhs_y6k25hVq53i3RBb-16" value="&lt;font style=&quot;font-size: 10px;&quot;&gt;&amp;nbsp;nome&lt;/font&gt;" style="rounded=0;whiteSpace=wrap;html=1;align=left;fillColor=none;" vertex="1" parent="1">
          <mxGeometry x="250" y="650" width="120" height="20" as="geometry" />
        </mxCell>
        <mxCell id="LFhs_y6k25hVq53i3RBb-24" value="&lt;font style=&quot;font-size: 10px;&quot;&gt;&amp;nbsp;cod_ponto&lt;/font&gt;" style="rounded=0;whiteSpace=wrap;html=1;align=left;fillColor=none;" vertex="1" parent="1">
          <mxGeometry x="250" y="620" width="120" height="20" as="geometry" />
        </mxCell>
        <mxCell id="LFhs_y6k25hVq53i3RBb-25" value="" style="rounded=0;whiteSpace=wrap;html=1;align=left;fillColor=none;" vertex="1" parent="1">
          <mxGeometry x="250" y="680" width="120" height="80" as="geometry" />
        </mxCell>
        <mxCell id="LFhs_y6k25hVq53i3RBb-27" value="&lt;font style=&quot;font-size: 10px;&quot;&gt;&lt;b&gt;coordenada&lt;/b&gt;&lt;/font&gt;" style="text;html=1;align=center;verticalAlign=middle;whiteSpace=wrap;rounded=0;" vertex="1" parent="1">
          <mxGeometry x="280" y="680" width="60" height="20" as="geometry" />
        </mxCell>
        <mxCell id="LFhs_y6k25hVq53i3RBb-28" value="&lt;span style=&quot;font-size: 10px;&quot;&gt;&amp;nbsp;latitude&lt;/span&gt;" style="rounded=0;whiteSpace=wrap;html=1;align=left;fillColor=none;" vertex="1" parent="1">
          <mxGeometry x="260" y="701" width="100" height="20" as="geometry" />
        </mxCell>
        <mxCell id="LFhs_y6k25hVq53i3RBb-29" value="&lt;span style=&quot;font-size: 10px;&quot;&gt;&amp;nbsp;longitude&lt;/span&gt;" style="rounded=0;whiteSpace=wrap;html=1;align=left;fillColor=none;" vertex="1" parent="1">
          <mxGeometry x="260" y="731" width="100" height="20" as="geometry" />
        </mxCell>
        <mxCell id="LFhs_y6k25hVq53i3RBb-35" value="&lt;p&gt;&lt;br&gt;&lt;/p&gt;" style="rounded=0;whiteSpace=wrap;html=1;align=left;fillColor=none;" vertex="1" parent="1">
          <mxGeometry x="440" y="560" width="140" height="200" as="geometry" />
        </mxCell>
        <mxCell id="LFhs_y6k25hVq53i3RBb-36" value="&lt;font style=&quot;font-size: 10px;&quot;&gt;&lt;b&gt;Trecho&lt;/b&gt;&lt;/font&gt;" style="text;html=1;align=center;verticalAlign=middle;whiteSpace=wrap;rounded=0;" vertex="1" parent="1">
          <mxGeometry x="480" y="560" width="60" height="20" as="geometry" />
        </mxCell>
        <mxCell id="LFhs_y6k25hVq53i3RBb-46" style="edgeStyle=orthogonalEdgeStyle;rounded=0;orthogonalLoop=1;jettySize=auto;html=1;entryX=1;entryY=0.5;entryDx=0;entryDy=0;endArrow=open;endFill=0;strokeColor=#999999;" edge="1" parent="1" source="LFhs_y6k25hVq53i3RBb-37" target="LFhs_y6k25hVq53i3RBb-24">
          <mxGeometry relative="1" as="geometry" />
        </mxCell>
        <mxCell id="LFhs_y6k25hVq53i3RBb-37" value="&lt;span style=&quot;font-size: 10px;&quot;&gt;&amp;nbsp;ponto_1&lt;/span&gt;" style="rounded=0;whiteSpace=wrap;html=1;align=left;fillColor=none;" vertex="1" parent="1">
          <mxGeometry x="450" y="610" width="120" height="20" as="geometry" />
        </mxCell>
        <mxCell id="LFhs_y6k25hVq53i3RBb-38" value="&lt;span style=&quot;font-size: 10px;&quot;&gt;&amp;nbsp;id_trecho&lt;/span&gt;" style="rounded=0;whiteSpace=wrap;html=1;align=left;fillColor=none;" vertex="1" parent="1">
          <mxGeometry x="450" y="580" width="120" height="20" as="geometry" />
        </mxCell>
        <mxCell id="LFhs_y6k25hVq53i3RBb-47" style="edgeStyle=orthogonalEdgeStyle;rounded=0;orthogonalLoop=1;jettySize=auto;html=1;entryX=1;entryY=0.5;entryDx=0;entryDy=0;endArrow=open;endFill=0;strokeColor=#999999;" edge="1" parent="1" source="LFhs_y6k25hVq53i3RBb-43" target="LFhs_y6k25hVq53i3RBb-24">
          <mxGeometry relative="1" as="geometry" />
        </mxCell>
        <mxCell id="LFhs_y6k25hVq53i3RBb-43" value="&lt;span style=&quot;font-size: 10px;&quot;&gt;&amp;nbsp;ponto_2&lt;/span&gt;" style="rounded=0;whiteSpace=wrap;html=1;align=left;fillColor=none;" vertex="1" parent="1">
          <mxGeometry x="450" y="640" width="120" height="20" as="geometry" />
        </mxCell>
        <mxCell id="LFhs_y6k25hVq53i3RBb-49" value="&lt;span style=&quot;font-size: 10px;&quot;&gt;&amp;nbsp;comprimento&lt;/span&gt;" style="rounded=0;whiteSpace=wrap;html=1;align=left;fillColor=none;" vertex="1" parent="1">
          <mxGeometry x="450" y="670" width="120" height="20" as="geometry" />
        </mxCell>
        <mxCell id="LFhs_y6k25hVq53i3RBb-50" value="&lt;span style=&quot;font-size: 10px;&quot;&gt;&amp;nbsp;tempo_médio&lt;/span&gt;" style="rounded=0;whiteSpace=wrap;html=1;align=left;fillColor=none;" vertex="1" parent="1">
          <mxGeometry x="450" y="700" width="120" height="20" as="geometry" />
        </mxCell>
        <mxCell id="LFhs_y6k25hVq53i3RBb-51" value="&lt;span style=&quot;font-size: 10px;&quot;&gt;&amp;nbsp;geometria&lt;/span&gt;" style="rounded=0;whiteSpace=wrap;html=1;align=left;fillColor=none;" vertex="1" parent="1">
          <mxGeometry x="450" y="730" width="120" height="20" as="geometry" />
        </mxCell>
        <mxCell id="LFhs_y6k25hVq53i3RBb-52" value="&lt;p&gt;&lt;br&gt;&lt;/p&gt;" style="rounded=0;whiteSpace=wrap;html=1;align=left;fillColor=none;" vertex="1" parent="1">
          <mxGeometry x="640" y="569" width="140" height="290" as="geometry" />
        </mxCell>
        <mxCell id="LFhs_y6k25hVq53i3RBb-53" value="&lt;font style=&quot;font-size: 10px;&quot;&gt;&lt;b&gt;Linha&lt;/b&gt;&lt;/font&gt;" style="text;html=1;align=center;verticalAlign=middle;whiteSpace=wrap;rounded=0;" vertex="1" parent="1">
          <mxGeometry x="680" y="569" width="60" height="20" as="geometry" />
        </mxCell>
        <mxCell id="LFhs_y6k25hVq53i3RBb-54" value="&lt;span style=&quot;font-size: 10px;&quot;&gt;&amp;nbsp;nome_linha&lt;/span&gt;" style="rounded=0;whiteSpace=wrap;html=1;align=left;fillColor=none;" vertex="1" parent="1">
          <mxGeometry x="650" y="619" width="120" height="20" as="geometry" />
        </mxCell>
        <mxCell id="LFhs_y6k25hVq53i3RBb-55" value="&lt;span style=&quot;font-size: 10px;&quot;&gt;&amp;nbsp;data_criação&lt;/span&gt;" style="rounded=0;whiteSpace=wrap;html=1;align=left;fillColor=none;" vertex="1" parent="1">
          <mxGeometry x="650" y="649" width="120" height="20" as="geometry" />
        </mxCell>
        <mxCell id="LFhs_y6k25hVq53i3RBb-62" value="&lt;span style=&quot;font-size: 10px;&quot;&gt;&amp;nbsp;cod_linha&lt;/span&gt;" style="rounded=0;whiteSpace=wrap;html=1;align=left;fillColor=none;" vertex="1" parent="1">
          <mxGeometry x="650" y="589" width="120" height="20" as="geometry" />
        </mxCell>
        <mxCell id="LFhs_y6k25hVq53i3RBb-63" value="" style="rounded=0;whiteSpace=wrap;html=1;align=left;fillColor=none;" vertex="1" parent="1">
          <mxGeometry x="650" y="679" width="120" height="170" as="geometry" />
        </mxCell>
        <mxCell id="LFhs_y6k25hVq53i3RBb-64" value="&lt;font style=&quot;font-size: 9px;&quot;&gt;(1,n)&lt;/font&gt;" style="text;html=1;align=center;verticalAlign=middle;whiteSpace=wrap;rounded=0;" vertex="1" parent="1">
          <mxGeometry x="740" y="679" width="30" height="20" as="geometry" />
        </mxCell>
        <mxCell id="LFhs_y6k25hVq53i3RBb-65" value="&lt;span style=&quot;font-size: 10px;&quot;&gt;&lt;b&gt;&amp;nbsp;rotas&lt;/b&gt;&lt;/span&gt;" style="text;html=1;align=left;verticalAlign=middle;whiteSpace=wrap;rounded=0;" vertex="1" parent="1">
          <mxGeometry x="650" y="679" width="60" height="20" as="geometry" />
        </mxCell>
        <mxCell id="LFhs_y6k25hVq53i3RBb-66" value="&lt;span style=&quot;font-size: 10px;&quot;&gt;&amp;nbsp;cod_rota&lt;/span&gt;" style="rounded=0;whiteSpace=wrap;html=1;align=left;fillColor=none;" vertex="1" parent="1">
          <mxGeometry x="660" y="700" width="100" height="20" as="geometry" />
        </mxCell>
        <mxCell id="LFhs_y6k25hVq53i3RBb-67" value="&lt;span style=&quot;font-size: 10px;&quot;&gt;&amp;nbsp;texto_letreiro&lt;/span&gt;" style="rounded=0;whiteSpace=wrap;html=1;align=left;fillColor=none;" vertex="1" parent="1">
          <mxGeometry x="660" y="729" width="100" height="20" as="geometry" />
        </mxCell>
        <mxCell id="LFhs_y6k25hVq53i3RBb-73" value="" style="rounded=0;whiteSpace=wrap;html=1;align=left;fillColor=none;" vertex="1" parent="1">
          <mxGeometry x="660" y="759" width="100" height="80" as="geometry" />
        </mxCell>
        <mxCell id="LFhs_y6k25hVq53i3RBb-74" value="&lt;font style=&quot;font-size: 9px;&quot;&gt;(1,n)&lt;/font&gt;" style="text;html=1;align=center;verticalAlign=middle;whiteSpace=wrap;rounded=0;" vertex="1" parent="1">
          <mxGeometry x="730" y="758" width="30" height="20" as="geometry" />
        </mxCell>
        <mxCell id="LFhs_y6k25hVq53i3RBb-75" value="&lt;span style=&quot;font-size: 10px;&quot;&gt;&lt;b&gt;&amp;nbsp;trechos&lt;/b&gt;&lt;/span&gt;" style="text;html=1;align=left;verticalAlign=middle;whiteSpace=wrap;rounded=0;" vertex="1" parent="1">
          <mxGeometry x="660" y="759" width="60" height="20" as="geometry" />
        </mxCell>
        <mxCell id="LFhs_y6k25hVq53i3RBb-76" value="&lt;span style=&quot;font-size: 10px;&quot;&gt;&amp;nbsp;id_trecho&lt;/span&gt;" style="rounded=0;whiteSpace=wrap;html=1;align=left;fillColor=none;" vertex="1" parent="1">
          <mxGeometry x="670" y="779" width="80" height="20" as="geometry" />
        </mxCell>
        <mxCell id="LFhs_y6k25hVq53i3RBb-77" value="&lt;span style=&quot;font-size: 10px;&quot;&gt;&amp;nbsp;ordem&lt;/span&gt;" style="rounded=0;whiteSpace=wrap;html=1;align=left;fillColor=none;" vertex="1" parent="1">
          <mxGeometry x="670" y="809" width="80" height="20" as="geometry" />
        </mxCell>
        <mxCell id="LFhs_y6k25hVq53i3RBb-78" style="edgeStyle=orthogonalEdgeStyle;rounded=0;orthogonalLoop=1;jettySize=auto;html=1;entryX=1;entryY=0.5;entryDx=0;entryDy=0;endArrow=open;endFill=0;strokeColor=#999999;exitX=0;exitY=0.5;exitDx=0;exitDy=0;" edge="1" parent="1" source="LFhs_y6k25hVq53i3RBb-76" target="LFhs_y6k25hVq53i3RBb-38">
          <mxGeometry relative="1" as="geometry">
            <mxPoint x="630" y="799.48" as="sourcePoint" />
            <mxPoint x="550" y="769.48" as="targetPoint" />
          </mxGeometry>
        </mxCell>
        <mxCell id="LFhs_y6k25hVq53i3RBb-79" value="&lt;p&gt;&lt;br&gt;&lt;/p&gt;" style="rounded=0;whiteSpace=wrap;html=1;align=left;fillColor=none;" vertex="1" parent="1">
          <mxGeometry x="640" y="959" width="140" height="290" as="geometry" />
        </mxCell>
        <mxCell id="LFhs_y6k25hVq53i3RBb-80" value="&lt;font style=&quot;font-size: 10px;&quot;&gt;&lt;b&gt;Bilhete&lt;/b&gt;&lt;/font&gt;" style="text;html=1;align=center;verticalAlign=middle;whiteSpace=wrap;rounded=0;" vertex="1" parent="1">
          <mxGeometry x="680" y="959" width="60" height="20" as="geometry" />
        </mxCell>
        <mxCell id="LFhs_y6k25hVq53i3RBb-81" value="&lt;span style=&quot;font-size: 10px;&quot;&gt;&amp;nbsp;saldo&lt;/span&gt;" style="rounded=0;whiteSpace=wrap;html=1;align=left;fillColor=none;" vertex="1" parent="1">
          <mxGeometry x="650" y="1009" width="120" height="20" as="geometry" />
        </mxCell>
        <mxCell id="LFhs_y6k25hVq53i3RBb-82" value="&lt;font style=&quot;font-size: 10px;&quot;&gt;&amp;nbsp;cod_cartão&lt;/font&gt;" style="rounded=0;whiteSpace=wrap;html=1;align=left;fillColor=none;" vertex="1" parent="1">
          <mxGeometry x="650" y="979" width="120" height="20" as="geometry" />
        </mxCell>
        <mxCell id="LFhs_y6k25hVq53i3RBb-83" value="" style="rounded=0;whiteSpace=wrap;html=1;align=left;fillColor=none;" vertex="1" parent="1">
          <mxGeometry x="680" y="1099" width="90" height="140" as="geometry" />
        </mxCell>
        <mxCell id="LFhs_y6k25hVq53i3RBb-84" value="&lt;font style=&quot;font-size: 10px;&quot;&gt;&lt;b&gt;usuário&lt;/b&gt;&lt;/font&gt;" style="text;html=1;align=center;verticalAlign=middle;whiteSpace=wrap;rounded=0;" vertex="1" parent="1">
          <mxGeometry x="695" y="1099" width="60" height="20" as="geometry" />
        </mxCell>
        <mxCell id="LFhs_y6k25hVq53i3RBb-85" value="&lt;span style=&quot;font-size: 10px;&quot;&gt;&amp;nbsp;cpf&lt;/span&gt;" style="rounded=0;whiteSpace=wrap;html=1;align=left;fillColor=none;" vertex="1" parent="1">
          <mxGeometry x="690" y="1119" width="70" height="20" as="geometry" />
        </mxCell>
        <mxCell id="LFhs_y6k25hVq53i3RBb-86" value="&lt;span style=&quot;font-size: 10px;&quot;&gt;&amp;nbsp;gênero&lt;/span&gt;" style="rounded=0;whiteSpace=wrap;html=1;align=left;fillColor=none;" vertex="1" parent="1">
          <mxGeometry x="690" y="1149" width="70" height="20" as="geometry" />
        </mxCell>
        <mxCell id="LFhs_y6k25hVq53i3RBb-87" value="&lt;span style=&quot;font-size: 10px;&quot;&gt;&amp;nbsp;tipo_cartão&lt;/span&gt;" style="rounded=0;whiteSpace=wrap;html=1;align=left;fillColor=none;" vertex="1" parent="1">
          <mxGeometry x="650" y="1038" width="120" height="20" as="geometry" />
        </mxCell>
        <mxCell id="LFhs_y6k25hVq53i3RBb-88" value="&lt;span style=&quot;font-size: 10px;&quot;&gt;&amp;nbsp;cpf_cobrador&lt;/span&gt;" style="rounded=0;whiteSpace=wrap;html=1;align=left;fillColor=none;" vertex="1" parent="1">
          <mxGeometry x="680" y="1069" width="90" height="20" as="geometry" />
        </mxCell>
        <mxCell id="LFhs_y6k25hVq53i3RBb-89" value="" style="shape=curlyBracket;whiteSpace=wrap;html=1;rounded=1;labelPosition=left;verticalLabelPosition=middle;align=right;verticalAlign=middle;" vertex="1" parent="1">
          <mxGeometry x="650" y="1070" width="20" height="169" as="geometry" />
        </mxCell>
        <mxCell id="LFhs_y6k25hVq53i3RBb-90" value="&lt;span style=&quot;font-size: 10px;&quot;&gt;&amp;nbsp;data_nasc&lt;/span&gt;" style="rounded=0;whiteSpace=wrap;html=1;align=left;fillColor=none;" vertex="1" parent="1">
          <mxGeometry x="690" y="1179" width="70" height="20" as="geometry" />
        </mxCell>
        <mxCell id="LFhs_y6k25hVq53i3RBb-91" value="&lt;span style=&quot;font-size: 10px;&quot;&gt;&amp;nbsp;nome&lt;/span&gt;" style="rounded=0;whiteSpace=wrap;html=1;align=left;fillColor=none;" vertex="1" parent="1">
          <mxGeometry x="690" y="1209" width="70" height="20" as="geometry" />
        </mxCell>
        <mxCell id="LFhs_y6k25hVq53i3RBb-106" value="&lt;p&gt;&lt;br&gt;&lt;/p&gt;" style="rounded=0;whiteSpace=wrap;html=1;align=left;fillColor=none;" vertex="1" parent="1">
          <mxGeometry x="240" y="799" width="140" height="290" as="geometry" />
        </mxCell>
        <mxCell id="LFhs_y6k25hVq53i3RBb-107" value="&lt;font style=&quot;font-size: 10px;&quot;&gt;&lt;b&gt;Garagem&lt;/b&gt;&lt;/font&gt;" style="text;html=1;align=center;verticalAlign=middle;whiteSpace=wrap;rounded=0;" vertex="1" parent="1">
          <mxGeometry x="280" y="799" width="60" height="20" as="geometry" />
        </mxCell>
        <mxCell id="LFhs_y6k25hVq53i3RBb-108" value="&lt;span style=&quot;font-size: 10px;&quot;&gt;&amp;nbsp;num_eletropostos&lt;/span&gt;" style="rounded=0;whiteSpace=wrap;html=1;align=left;fillColor=none;" vertex="1" parent="1">
          <mxGeometry x="250" y="849" width="120" height="20" as="geometry" />
        </mxCell>
        <mxCell id="LFhs_y6k25hVq53i3RBb-109" value="&lt;font style=&quot;font-size: 10px;&quot;&gt;&amp;nbsp;cod_garagem&lt;/font&gt;" style="rounded=0;whiteSpace=wrap;html=1;align=left;fillColor=none;" vertex="1" parent="1">
          <mxGeometry x="250" y="819" width="120" height="20" as="geometry" />
        </mxCell>
        <mxCell id="LFhs_y6k25hVq53i3RBb-110" value="" style="rounded=0;whiteSpace=wrap;html=1;align=left;fillColor=none;" vertex="1" parent="1">
          <mxGeometry x="250" y="909" width="120" height="140" as="geometry" />
        </mxCell>
        <mxCell id="LFhs_y6k25hVq53i3RBb-111" value="&lt;font style=&quot;font-size: 10px;&quot;&gt;&lt;b&gt;endereço&lt;/b&gt;&lt;/font&gt;" style="text;html=1;align=center;verticalAlign=middle;whiteSpace=wrap;rounded=0;" vertex="1" parent="1">
          <mxGeometry x="280" y="909" width="60" height="20" as="geometry" />
        </mxCell>
        <mxCell id="LFhs_y6k25hVq53i3RBb-112" value="&lt;span style=&quot;font-size: 10px;&quot;&gt;&amp;nbsp;logradouro&lt;/span&gt;" style="rounded=0;whiteSpace=wrap;html=1;align=left;fillColor=none;" vertex="1" parent="1">
          <mxGeometry x="260" y="929" width="100" height="20" as="geometry" />
        </mxCell>
        <mxCell id="LFhs_y6k25hVq53i3RBb-113" value="&lt;span style=&quot;font-size: 10px;&quot;&gt;&amp;nbsp;número&lt;/span&gt;" style="rounded=0;whiteSpace=wrap;html=1;align=left;fillColor=none;" vertex="1" parent="1">
          <mxGeometry x="260" y="959" width="100" height="20" as="geometry" />
        </mxCell>
        <mxCell id="LFhs_y6k25hVq53i3RBb-114" value="&lt;span style=&quot;font-size: 10px;&quot;&gt;&amp;nbsp;estoque_diesel&lt;/span&gt;" style="rounded=0;whiteSpace=wrap;html=1;align=left;fillColor=none;" vertex="1" parent="1">
          <mxGeometry x="250" y="878" width="120" height="20" as="geometry" />
        </mxCell>
        <mxCell id="LFhs_y6k25hVq53i3RBb-115" value="&lt;span style=&quot;font-size: 10px;&quot;&gt;&amp;nbsp;cidade&lt;/span&gt;" style="rounded=0;whiteSpace=wrap;html=1;align=left;fillColor=none;" vertex="1" parent="1">
          <mxGeometry x="260" y="989" width="100" height="20" as="geometry" />
        </mxCell>
        <mxCell id="LFhs_y6k25hVq53i3RBb-116" value="&lt;span style=&quot;font-size: 10px;&quot;&gt;&amp;nbsp;cep&lt;/span&gt;" style="rounded=0;whiteSpace=wrap;html=1;align=left;fillColor=none;" vertex="1" parent="1">
          <mxGeometry x="260" y="1019" width="100" height="20" as="geometry" />
        </mxCell>
        <mxCell id="LFhs_y6k25hVq53i3RBb-120" value="&lt;span style=&quot;font-size: 10px;&quot;&gt;&lt;b&gt;&amp;nbsp;veículos&lt;/b&gt;&lt;/span&gt;" style="rounded=0;whiteSpace=wrap;html=1;align=left;fillColor=none;" vertex="1" parent="1">
          <mxGeometry x="250" y="1059" width="120" height="20" as="geometry" />
        </mxCell>
        <mxCell id="LFhs_y6k25hVq53i3RBb-118" value="&lt;font style=&quot;font-size: 9px;&quot;&gt;(0,n)&lt;/font&gt;" style="text;html=1;align=center;verticalAlign=middle;whiteSpace=wrap;rounded=0;" vertex="1" parent="1">
          <mxGeometry x="340" y="1059" width="30" height="20" as="geometry" />
        </mxCell>
        <mxCell id="LFhs_y6k25hVq53i3RBb-121" value="&lt;p&gt;&lt;br&gt;&lt;/p&gt;" style="rounded=0;whiteSpace=wrap;html=1;align=left;fillColor=none;" vertex="1" parent="1">
          <mxGeometry x="440" y="878" width="140" height="411" as="geometry" />
        </mxCell>
        <mxCell id="LFhs_y6k25hVq53i3RBb-122" value="&lt;font style=&quot;font-size: 10px;&quot;&gt;&lt;b&gt;Veículo&lt;/b&gt;&lt;/font&gt;" style="text;html=1;align=center;verticalAlign=middle;whiteSpace=wrap;rounded=0;" vertex="1" parent="1">
          <mxGeometry x="480" y="878" width="60" height="20" as="geometry" />
        </mxCell>
        <mxCell id="LFhs_y6k25hVq53i3RBb-123" value="&lt;span style=&quot;font-size: 10px;&quot;&gt;&amp;nbsp;status&lt;/span&gt;" style="rounded=0;whiteSpace=wrap;html=1;align=left;fillColor=none;" vertex="1" parent="1">
          <mxGeometry x="450" y="928" width="120" height="20" as="geometry" />
        </mxCell>
        <mxCell id="LFhs_y6k25hVq53i3RBb-124" value="&lt;font style=&quot;font-size: 10px;&quot;&gt;&amp;nbsp;cod_veículo&lt;/font&gt;" style="rounded=0;whiteSpace=wrap;html=1;align=left;fillColor=none;" vertex="1" parent="1">
          <mxGeometry x="450" y="899" width="120" height="20" as="geometry" />
        </mxCell>
        <mxCell id="LFhs_y6k25hVq53i3RBb-125" value="" style="rounded=0;whiteSpace=wrap;html=1;align=left;fillColor=none;" vertex="1" parent="1">
          <mxGeometry x="450" y="1019" width="120" height="110" as="geometry" />
        </mxCell>
        <mxCell id="LFhs_y6k25hVq53i3RBb-126" value="&lt;font style=&quot;font-size: 10px;&quot;&gt;&lt;b&gt;localização&lt;/b&gt;&lt;/font&gt;" style="text;html=1;align=center;verticalAlign=middle;whiteSpace=wrap;rounded=0;" vertex="1" parent="1">
          <mxGeometry x="480" y="1019" width="60" height="20" as="geometry" />
        </mxCell>
        <mxCell id="LFhs_y6k25hVq53i3RBb-127" value="&lt;span style=&quot;font-size: 10px;&quot;&gt;&amp;nbsp;latitude&lt;/span&gt;" style="rounded=0;whiteSpace=wrap;html=1;align=left;fillColor=none;" vertex="1" parent="1">
          <mxGeometry x="460" y="1039" width="100" height="20" as="geometry" />
        </mxCell>
        <mxCell id="LFhs_y6k25hVq53i3RBb-128" value="&lt;span style=&quot;font-size: 10px;&quot;&gt;&amp;nbsp;longitude&lt;/span&gt;" style="rounded=0;whiteSpace=wrap;html=1;align=left;fillColor=none;" vertex="1" parent="1">
          <mxGeometry x="460" y="1069" width="100" height="20" as="geometry" />
        </mxCell>
        <mxCell id="LFhs_y6k25hVq53i3RBb-129" value="&lt;span style=&quot;font-size: 10px;&quot;&gt;&amp;nbsp;data_início_operação&lt;/span&gt;" style="rounded=0;whiteSpace=wrap;html=1;align=left;fillColor=none;" vertex="1" parent="1">
          <mxGeometry x="450" y="957" width="120" height="20" as="geometry" />
        </mxCell>
        <mxCell id="LFhs_y6k25hVq53i3RBb-130" value="&lt;span style=&quot;font-size: 10px;&quot;&gt;&amp;nbsp;última_atualização&lt;/span&gt;" style="rounded=0;whiteSpace=wrap;html=1;align=left;fillColor=none;" vertex="1" parent="1">
          <mxGeometry x="460" y="1099" width="100" height="20" as="geometry" />
        </mxCell>
        <mxCell id="1Lc_ljNFPLn3M0rmlGmO-1" value="&lt;span style=&quot;font-size: 10px;&quot;&gt;&amp;nbsp;cod_modelo&lt;/span&gt;" style="rounded=0;whiteSpace=wrap;html=1;align=left;fillColor=none;" vertex="1" parent="1">
          <mxGeometry x="450" y="989" width="120" height="20" as="geometry" />
        </mxCell>
        <mxCell id="1Lc_ljNFPLn3M0rmlGmO-2" value="" style="rounded=0;whiteSpace=wrap;html=1;align=left;fillColor=none;" vertex="1" parent="1">
          <mxGeometry x="450" y="1139" width="120" height="140" as="geometry" />
        </mxCell>
        <mxCell id="1Lc_ljNFPLn3M0rmlGmO-4" value="&lt;span style=&quot;font-size: 10px;&quot;&gt;&amp;nbsp;cod_serviço&lt;/span&gt;" style="rounded=0;whiteSpace=wrap;html=1;align=left;fillColor=none;" vertex="1" parent="1">
          <mxGeometry x="460" y="1159" width="100" height="20" as="geometry" />
        </mxCell>
        <mxCell id="1Lc_ljNFPLn3M0rmlGmO-5" value="&lt;span style=&quot;font-size: 10px;&quot;&gt;&amp;nbsp;cpf_técnico&lt;/span&gt;" style="rounded=0;whiteSpace=wrap;html=1;align=left;fillColor=none;" vertex="1" parent="1">
          <mxGeometry x="460" y="1189" width="100" height="20" as="geometry" />
        </mxCell>
        <mxCell id="1Lc_ljNFPLn3M0rmlGmO-6" value="&lt;span style=&quot;font-size: 10px;&quot;&gt;&amp;nbsp;data&lt;/span&gt;" style="rounded=0;whiteSpace=wrap;html=1;align=left;fillColor=none;" vertex="1" parent="1">
          <mxGeometry x="460" y="1219" width="100" height="20" as="geometry" />
        </mxCell>
        <mxCell id="1Lc_ljNFPLn3M0rmlGmO-7" style="edgeStyle=orthogonalEdgeStyle;rounded=0;orthogonalLoop=1;jettySize=auto;html=1;entryX=0;entryY=0.5;entryDx=0;entryDy=0;endArrow=open;endFill=0;strokeColor=#999999;exitX=1;exitY=0.5;exitDx=0;exitDy=0;" edge="1" parent="1" source="LFhs_y6k25hVq53i3RBb-120" target="LFhs_y6k25hVq53i3RBb-124">
          <mxGeometry relative="1" as="geometry">
            <mxPoint x="760" y="1270" as="sourcePoint" />
            <mxPoint x="1070" y="950" as="targetPoint" />
            <Array as="points">
              <mxPoint x="370" y="1070" />
              <mxPoint x="400" y="1070" />
              <mxPoint x="400" y="909" />
              <mxPoint x="450" y="909" />
            </Array>
          </mxGeometry>
        </mxCell>
        <mxCell id="1Lc_ljNFPLn3M0rmlGmO-8" value="&lt;font style=&quot;font-size: 9px;&quot;&gt;(0,n)&lt;/font&gt;" style="text;html=1;align=center;verticalAlign=middle;whiteSpace=wrap;rounded=0;" vertex="1" parent="1">
          <mxGeometry x="540" y="1139" width="30" height="20" as="geometry" />
        </mxCell>
        <mxCell id="1Lc_ljNFPLn3M0rmlGmO-9" value="&lt;span style=&quot;font-size: 10px;&quot;&gt;&lt;b&gt;&amp;nbsp;manutenções&lt;/b&gt;&lt;/span&gt;" style="text;html=1;align=left;verticalAlign=middle;whiteSpace=wrap;rounded=0;" vertex="1" parent="1">
          <mxGeometry x="450" y="1139" width="60" height="20" as="geometry" />
        </mxCell>
        <mxCell id="1Lc_ljNFPLn3M0rmlGmO-10" value="&lt;span style=&quot;font-size: 10px;&quot;&gt;&amp;nbsp;descrição&lt;/span&gt;" style="rounded=0;whiteSpace=wrap;html=1;align=left;fillColor=none;" vertex="1" parent="1">
          <mxGeometry x="460" y="1249" width="100" height="20" as="geometry" />
        </mxCell>
        <mxCell id="1Lc_ljNFPLn3M0rmlGmO-11" value="&lt;p&gt;&lt;br&gt;&lt;/p&gt;" style="rounded=0;whiteSpace=wrap;html=1;align=left;fillColor=none;" vertex="1" parent="1">
          <mxGeometry x="240" y="1119" width="140" height="140" as="geometry" />
        </mxCell>
        <mxCell id="1Lc_ljNFPLn3M0rmlGmO-12" value="&lt;font style=&quot;font-size: 10px;&quot;&gt;&lt;b&gt;Modelo&lt;/b&gt;&lt;/font&gt;" style="text;html=1;align=center;verticalAlign=middle;whiteSpace=wrap;rounded=0;" vertex="1" parent="1">
          <mxGeometry x="280" y="1119" width="60" height="20" as="geometry" />
        </mxCell>
        <mxCell id="1Lc_ljNFPLn3M0rmlGmO-13" value="&lt;span style=&quot;font-size: 10px;&quot;&gt;&amp;nbsp;tipo&lt;/span&gt;" style="rounded=0;whiteSpace=wrap;html=1;align=left;fillColor=none;" vertex="1" parent="1">
          <mxGeometry x="250" y="1169" width="120" height="20" as="geometry" />
        </mxCell>
        <mxCell id="1Lc_ljNFPLn3M0rmlGmO-14" value="&lt;font style=&quot;font-size: 10px;&quot;&gt;&amp;nbsp;cod_modelo&lt;/font&gt;" style="rounded=0;whiteSpace=wrap;html=1;align=left;fillColor=none;" vertex="1" parent="1">
          <mxGeometry x="250" y="1139" width="120" height="20" as="geometry" />
        </mxCell>
        <mxCell id="1Lc_ljNFPLn3M0rmlGmO-19" value="&lt;span style=&quot;font-size: 10px;&quot;&gt;&amp;nbsp;capacidade&lt;/span&gt;" style="rounded=0;whiteSpace=wrap;html=1;align=left;fillColor=none;" vertex="1" parent="1">
          <mxGeometry x="250" y="1198" width="120" height="20" as="geometry" />
        </mxCell>
        <mxCell id="1Lc_ljNFPLn3M0rmlGmO-24" style="edgeStyle=orthogonalEdgeStyle;rounded=0;orthogonalLoop=1;jettySize=auto;html=1;entryX=1;entryY=0.5;entryDx=0;entryDy=0;endArrow=open;endFill=0;strokeColor=#999999;exitX=0;exitY=0.5;exitDx=0;exitDy=0;" edge="1" parent="1" source="1Lc_ljNFPLn3M0rmlGmO-1" target="1Lc_ljNFPLn3M0rmlGmO-14">
          <mxGeometry relative="1" as="geometry">
            <mxPoint x="650" y="1201" as="sourcePoint" />
            <mxPoint x="730" y="1040" as="targetPoint" />
            <Array as="points">
              <mxPoint x="450" y="1000" />
              <mxPoint x="420" y="1000" />
              <mxPoint x="420" y="1149" />
            </Array>
          </mxGeometry>
        </mxCell>
        <mxCell id="1Lc_ljNFPLn3M0rmlGmO-25" value="&lt;span style=&quot;font-size: 10px;&quot;&gt;&lt;b&gt;&amp;nbsp;fabricantes&lt;/b&gt;&lt;/span&gt;" style="rounded=0;whiteSpace=wrap;html=1;align=left;fillColor=none;" vertex="1" parent="1">
          <mxGeometry x="250" y="1229" width="120" height="20" as="geometry" />
        </mxCell>
        <mxCell id="1Lc_ljNFPLn3M0rmlGmO-26" value="&lt;font style=&quot;font-size: 9px;&quot;&gt;(1,n)&lt;/font&gt;" style="text;html=1;align=center;verticalAlign=middle;whiteSpace=wrap;rounded=0;" vertex="1" parent="1">
          <mxGeometry x="340" y="1229" width="30" height="20" as="geometry" />
        </mxCell>
        <mxCell id="1Lc_ljNFPLn3M0rmlGmO-27" value="&lt;p&gt;&lt;br&gt;&lt;/p&gt;" style="rounded=0;whiteSpace=wrap;html=1;align=left;fillColor=none;" vertex="1" parent="1">
          <mxGeometry x="840" y="819" width="140" height="440" as="geometry" />
        </mxCell>
        <mxCell id="1Lc_ljNFPLn3M0rmlGmO-28" value="&lt;font style=&quot;font-size: 10px;&quot;&gt;&lt;b&gt;Viagem&lt;/b&gt;&lt;/font&gt;" style="text;html=1;align=center;verticalAlign=middle;whiteSpace=wrap;rounded=0;" vertex="1" parent="1">
          <mxGeometry x="880" y="819" width="60" height="20" as="geometry" />
        </mxCell>
        <mxCell id="1Lc_ljNFPLn3M0rmlGmO-29" value="&lt;span style=&quot;font-size: 10px;&quot;&gt;&amp;nbsp;cpf_motorista&lt;/span&gt;" style="rounded=0;whiteSpace=wrap;html=1;align=left;fillColor=none;" vertex="1" parent="1">
          <mxGeometry x="850" y="839" width="120" height="20" as="geometry" />
        </mxCell>
        <mxCell id="1Lc_ljNFPLn3M0rmlGmO-30" value="&lt;span style=&quot;font-size: 10px;&quot;&gt;&amp;nbsp;datahora_início&lt;/span&gt;" style="rounded=0;whiteSpace=wrap;html=1;align=left;fillColor=none;" vertex="1" parent="1">
          <mxGeometry x="850" y="929" width="120" height="20" as="geometry" />
        </mxCell>
        <mxCell id="1Lc_ljNFPLn3M0rmlGmO-37" value="&lt;span style=&quot;font-size: 10px;&quot;&gt;&amp;nbsp;cod_veículo&lt;/span&gt;" style="rounded=0;whiteSpace=wrap;html=1;align=left;fillColor=none;" vertex="1" parent="1">
          <mxGeometry x="850" y="898" width="120" height="20" as="geometry" />
        </mxCell>
        <mxCell id="1Lc_ljNFPLn3M0rmlGmO-38" value="" style="rounded=0;whiteSpace=wrap;html=1;align=left;fillColor=none;" vertex="1" parent="1">
          <mxGeometry x="850" y="989" width="120" height="141" as="geometry" />
        </mxCell>
        <mxCell id="1Lc_ljNFPLn3M0rmlGmO-39" value="&lt;font style=&quot;font-size: 9px;&quot;&gt;(0,n)&lt;/font&gt;" style="text;html=1;align=center;verticalAlign=middle;whiteSpace=wrap;rounded=0;" vertex="1" parent="1">
          <mxGeometry x="940" y="989" width="30" height="20" as="geometry" />
        </mxCell>
        <mxCell id="1Lc_ljNFPLn3M0rmlGmO-40" value="&lt;span style=&quot;font-size: 10px;&quot;&gt;&lt;b&gt;&amp;nbsp;ocorrências&lt;/b&gt;&lt;/span&gt;" style="text;html=1;align=left;verticalAlign=middle;whiteSpace=wrap;rounded=0;" vertex="1" parent="1">
          <mxGeometry x="850" y="989" width="60" height="20" as="geometry" />
        </mxCell>
        <mxCell id="1Lc_ljNFPLn3M0rmlGmO-41" value="&lt;span style=&quot;font-size: 10px;&quot;&gt;&amp;nbsp;cod_ocorrência&lt;/span&gt;" style="rounded=0;whiteSpace=wrap;html=1;align=left;fillColor=none;" vertex="1" parent="1">
          <mxGeometry x="860" y="1010" width="100" height="20" as="geometry" />
        </mxCell>
        <mxCell id="1Lc_ljNFPLn3M0rmlGmO-42" value="&lt;span style=&quot;font-size: 10px;&quot;&gt;&amp;nbsp;tipo&lt;/span&gt;" style="rounded=0;whiteSpace=wrap;html=1;align=left;fillColor=none;" vertex="1" parent="1">
          <mxGeometry x="860" y="1040" width="100" height="20" as="geometry" />
        </mxCell>
        <mxCell id="1Lc_ljNFPLn3M0rmlGmO-43" value="&lt;span style=&quot;font-size: 10px;&quot;&gt;&amp;nbsp;datahora&lt;/span&gt;" style="rounded=0;whiteSpace=wrap;html=1;align=left;fillColor=none;" vertex="1" parent="1">
          <mxGeometry x="860" y="1070" width="100" height="20" as="geometry" />
        </mxCell>
        <mxCell id="1Lc_ljNFPLn3M0rmlGmO-48" value="&lt;span style=&quot;font-size: 10px;&quot;&gt;&amp;nbsp;datahora_fim&lt;/span&gt;" style="rounded=0;whiteSpace=wrap;html=1;align=left;fillColor=none;" vertex="1" parent="1">
          <mxGeometry x="850" y="959" width="120" height="20" as="geometry" />
        </mxCell>
        <mxCell id="1Lc_ljNFPLn3M0rmlGmO-49" value="&lt;span style=&quot;font-size: 10px;&quot;&gt;&amp;nbsp;cod_rota&lt;/span&gt;" style="rounded=0;whiteSpace=wrap;html=1;align=left;fillColor=none;" vertex="1" parent="1">
          <mxGeometry x="850" y="869" width="120" height="20" as="geometry" />
        </mxCell>
        <mxCell id="1Lc_ljNFPLn3M0rmlGmO-50" style="edgeStyle=orthogonalEdgeStyle;rounded=0;orthogonalLoop=1;jettySize=auto;html=1;entryX=1;entryY=0.5;entryDx=0;entryDy=0;endArrow=open;endFill=0;strokeColor=#999999;exitX=0;exitY=0.5;exitDx=0;exitDy=0;" edge="1" parent="1" source="1Lc_ljNFPLn3M0rmlGmO-37" target="LFhs_y6k25hVq53i3RBb-124">
          <mxGeometry relative="1" as="geometry">
            <mxPoint x="1020" y="650" as="sourcePoint" />
            <mxPoint x="940" y="590" as="targetPoint" />
            <Array as="points">
              <mxPoint x="850" y="909" />
            </Array>
          </mxGeometry>
        </mxCell>
        <mxCell id="1Lc_ljNFPLn3M0rmlGmO-52" value="&lt;span style=&quot;font-size: 10px;&quot;&gt;&amp;nbsp;descrição&lt;/span&gt;" style="rounded=0;whiteSpace=wrap;html=1;align=left;fillColor=none;" vertex="1" parent="1">
          <mxGeometry x="860" y="1100" width="100" height="20" as="geometry" />
        </mxCell>
        <mxCell id="1Lc_ljNFPLn3M0rmlGmO-53" value="" style="rounded=0;whiteSpace=wrap;html=1;align=left;fillColor=none;" vertex="1" parent="1">
          <mxGeometry x="850" y="1140" width="120" height="110" as="geometry" />
        </mxCell>
        <mxCell id="1Lc_ljNFPLn3M0rmlGmO-54" value="&lt;font style=&quot;font-size: 9px;&quot;&gt;(0,n)&lt;/font&gt;" style="text;html=1;align=center;verticalAlign=middle;whiteSpace=wrap;rounded=0;" vertex="1" parent="1">
          <mxGeometry x="940" y="1140" width="30" height="20" as="geometry" />
        </mxCell>
        <mxCell id="1Lc_ljNFPLn3M0rmlGmO-55" value="&lt;span style=&quot;font-size: 10px;&quot;&gt;&lt;b&gt;&amp;nbsp;entradas&lt;/b&gt;&lt;/span&gt;" style="text;html=1;align=left;verticalAlign=middle;whiteSpace=wrap;rounded=0;" vertex="1" parent="1">
          <mxGeometry x="850" y="1140" width="60" height="20" as="geometry" />
        </mxCell>
        <mxCell id="1Lc_ljNFPLn3M0rmlGmO-56" value="&lt;span style=&quot;font-size: 10px;&quot;&gt;&amp;nbsp;cod_cartão&lt;/span&gt;" style="rounded=0;whiteSpace=wrap;html=1;align=left;fillColor=none;" vertex="1" parent="1">
          <mxGeometry x="860" y="1161" width="100" height="20" as="geometry" />
        </mxCell>
        <mxCell id="1Lc_ljNFPLn3M0rmlGmO-57" value="&lt;span style=&quot;font-size: 10px;&quot;&gt;&amp;nbsp;tarifa&lt;/span&gt;" style="rounded=0;whiteSpace=wrap;html=1;align=left;fillColor=none;" vertex="1" parent="1">
          <mxGeometry x="860" y="1191" width="100" height="20" as="geometry" />
        </mxCell>
        <mxCell id="1Lc_ljNFPLn3M0rmlGmO-58" value="&lt;span style=&quot;font-size: 10px;&quot;&gt;&amp;nbsp;datahora&lt;/span&gt;" style="rounded=0;whiteSpace=wrap;html=1;align=left;fillColor=none;" vertex="1" parent="1">
          <mxGeometry x="860" y="1219" width="100" height="20" as="geometry" />
        </mxCell>
        <mxCell id="gL4xTHuLaOQCfxnBM0v3-3" style="edgeStyle=orthogonalEdgeStyle;rounded=0;orthogonalLoop=1;jettySize=auto;html=1;entryX=1;entryY=0.5;entryDx=0;entryDy=0;endArrow=open;endFill=0;strokeColor=#999999;exitX=0;exitY=0.5;exitDx=0;exitDy=0;" edge="1" parent="1" source="1Lc_ljNFPLn3M0rmlGmO-49" target="LFhs_y6k25hVq53i3RBb-66">
          <mxGeometry relative="1" as="geometry">
            <mxPoint x="930" y="730" as="sourcePoint" />
            <mxPoint x="850" y="700" as="targetPoint" />
            <Array as="points">
              <mxPoint x="800" y="879" />
              <mxPoint x="800" y="710" />
            </Array>
          </mxGeometry>
        </mxCell>
        <mxCell id="gL4xTHuLaOQCfxnBM0v3-5" style="edgeStyle=orthogonalEdgeStyle;rounded=0;orthogonalLoop=1;jettySize=auto;html=1;entryX=1;entryY=0.5;entryDx=0;entryDy=0;endArrow=open;endFill=0;strokeColor=#999999;exitX=0;exitY=0.5;exitDx=0;exitDy=0;" edge="1" parent="1" source="qYo8YAyCSx4QtcrTbeZ4-14" target="1Lc_ljNFPLn3M0rmlGmO-29">
          <mxGeometry relative="1" as="geometry">
            <mxPoint x="1130" y="769" as="sourcePoint" />
            <mxPoint x="1050" y="739" as="targetPoint" />
          </mxGeometry>
        </mxCell>
        <mxCell id="gL4xTHuLaOQCfxnBM0v3-6" style="edgeStyle=orthogonalEdgeStyle;rounded=0;orthogonalLoop=1;jettySize=auto;html=1;entryX=0;entryY=0.5;entryDx=0;entryDy=0;endArrow=open;endFill=0;strokeColor=#999999;" edge="1" parent="1" source="LFhs_y6k25hVq53i3RBb-82" target="1Lc_ljNFPLn3M0rmlGmO-56">
          <mxGeometry relative="1" as="geometry">
            <mxPoint x="890" y="1090" as="sourcePoint" />
            <mxPoint x="810" y="1060" as="targetPoint" />
          </mxGeometry>
        </mxCell>
      </root>
    </mxGraphModel>
  </diagram>
</mxfile>
